<?xml version="1.0" encoding="utf-8"?>
<!-- Generator: Adobe Illustrator 17.0.0, SVG Export Plug-In . SVG Version: 6.00 Build 0)  -->
<!DOCTYPE svg PUBLIC "-//W3C//DTD SVG 1.1//EN" "http://www.w3.org/Graphics/SVG/1.1/DTD/svg11.dtd">
<svg version="1.1" id="Layer_1" xmlns="http://www.w3.org/2000/svg" xmlns:xlink="http://www.w3.org/1999/xlink" x="0px" y="0px"
	 width="213px" height="28px" viewBox="0 0 213 28" enable-background="new 0 0 213 28" xml:space="preserve">
<g>
	<g id="TELUS_1_">
		<g>
			<g>
				<g>
					<polyline fill="#4B286D" points="84.12,8.079 84.12,5.219 73.925,5.219 73.925,19.929 84.12,19.929 84.12,16.945 
						78.057,16.945 78.057,13.686 83.101,13.686 83.101,10.826 78.057,10.826 78.057,8.079 84.12,8.079 					"/>
					<polyline fill="#4B286D" points="102.112,17.024 95.739,17.024 95.739,5.219 91.557,5.219 91.557,19.929 102.112,19.929 
						102.112,17.024 					"/>
					<path fill="#4B286D" d="M135.776,10.826c-2.82-0.636-3.806-0.709-3.806-1.83c0-1.041,1.396-1.368,2.201-1.368
						c1.306,0,2.837,0.304,4.397,1.109l1.137-2.708c-1.599-0.878-3.659-1.238-5.641-1.238c-3.89,0-6.502,1.576-6.609,4.656
						c-0.113,2.803,2.167,3.856,4.267,4.29c2.021,0.417,4.07,0.777,4.115,1.976c0.039,1.109-0.957,1.582-2.837,1.582
						c-1.74,0-3.361-0.557-5.016-1.25l-0.963,2.939c1.897,0.811,3.828,1.255,5.821,1.255c2.764,0,4.779-0.428,6.266-1.824
						c1.03-0.957,1.368-2.111,1.368-3.214C140.471,12.87,139.024,11.558,135.776,10.826"/>
					<polyline fill="#4B286D" points="67.992,8.124 67.992,5.219 55.162,5.219 55.162,8.124 59.497,8.124 59.497,19.929 
						63.657,19.929 63.657,8.124 67.992,8.124 					"/>
					<path fill="#4B286D" d="M116.371,5.219v9.345c0,0.732,0,0.934-0.045,1.222c-0.129,0.889-0.996,1.407-2.376,1.424
						c-1.019-0.017-1.768-0.315-2.117-0.85c-0.175-0.276-0.259-0.766-0.259-1.554V5.219h-4.335v10.139
						c0,1.407,0.186,2.038,0.822,2.837c1.047,1.312,3.085,1.998,5.9,1.998c0.028,0,0.062,0,0.09,0c0.017,0,0.039,0,0.062,0
						c3.76,0,5.703-1.469,6.266-2.843c0.281-0.664,0.304-0.98,0.304-2.325V5.219H116.371"/>
					<g>
						<path fill="#4B286D" d="M57.121,1.189L32.813,6.03v1.694l0.079-0.023c16.061-3.901,24.229-6.249,24.297-6.266
							c0.09-0.023,0.124-0.096,0.113-0.152C57.284,1.222,57.223,1.172,57.121,1.189"/>
						<path fill="#66CC00" d="M36.72,2.545c0.377-0.242,0.484-0.09,0.372,0.18c-0.175,0.433-0.996,3.068-7.121,8.09
							c-1.599,1.306-2.73,2.043-5.033,3.406C28.704,8.946,34.204,4.178,36.72,2.545 M37.356,0.727
							c-1.182,0.068-3.372,1.818-4.571,2.86C28,7.724,24.448,11.53,21.858,15.51c-5.393,2.888-12.261,5.855-19.089,8.174
							L2.606,23.74l-1.312,3.535l0.749-0.293c4.34-1.655,11.585-4.763,18.155-8.213c-0.372,0.985-0.557,1.891-0.557,2.719
							c0,0.619,0.101,1.188,0.31,1.711c0.411,1.036,1.227,1.824,2.353,2.274c1.683,0.67,3.974,0.687,6.592-0.107
							c6.682-2.027,14.614-8.247,16.342-9.486l0.062-0.045c0.068-0.051,0.073-0.124,0.045-0.175
							c-0.039-0.056-0.118-0.073-0.18-0.034l0,0l0,0l-0.084,0.051c-1.852,1.109-10.854,6.451-16.708,8.022
							c-2.978,0.799-5.252,0.36-6.108-0.839c-0.298-0.411-0.439-0.929-0.439-1.531c0-1.177,0.552-2.68,1.627-4.346
							c0.985-0.563,1.903-1.109,2.73-1.627c5.708-3.209,12.289-9.446,12.565-13.252c0-0.028,0-0.056,0-0.084
							c0-0.327-0.141-0.664-0.394-0.918C38.094,0.84,37.739,0.704,37.356,0.727z"/>
					</g>
					<polyline fill="#4B286D" points="32.734,6.047 7.16,11.547 6.169,14.204 32.813,7.724 32.853,7.713 32.853,6.024 32.734,6.047 
											"/>
				</g>
			</g>
		</g>
	</g>
	<g id="TELUS__xAE__1_">
		<g>
			<g>
				<path fill="#4B286D" d="M142.863,5.219c0.833,0,1.531,0.659,1.531,1.52c0,0.878-0.698,1.537-1.531,1.537
					c-0.839,0-1.542-0.659-1.542-1.537C141.321,5.878,142.025,5.219,142.863,5.219z M142.863,8.051c0.709,0,1.255-0.563,1.255-1.312
					c0-0.732-0.546-1.295-1.255-1.295c-0.715,0-1.261,0.563-1.261,1.295C141.597,7.488,142.143,8.051,142.863,8.051z M142.267,5.85
					h0.692c0.422,0,0.625,0.169,0.625,0.512c0,0.321-0.203,0.456-0.473,0.484l0.512,0.788h-0.298l-0.484-0.766h-0.293v0.766h-0.276
					V5.85H142.267z M142.543,6.644h0.293c0.242,0,0.473-0.011,0.473-0.293c0-0.236-0.203-0.276-0.394-0.276h-0.366v0.569H142.543z"
					/>
			</g>
		</g>
	</g>
	<g id="Sub__x28_Hor_x29__1_">
		<g>
			<path fill="#4B286D" d="M155.276,5.253h1.953v6.311h7.724V5.253h1.953v14.67h-1.953v-6.716h-7.724v6.722h-1.953V5.253z"/>
			<path fill="#4B286D" d="M178.886,16.557c-0.473,2.342-2.156,3.614-4.543,3.614c-3.389,0-4.993-2.342-5.095-5.59
				c0-3.186,2.094-5.528,4.993-5.528c3.76,0,4.909,3.513,4.808,6.08h-7.949c-0.062,1.846,0.985,3.49,3.31,3.49
				c1.436,0,2.443-0.698,2.753-2.077h1.723V16.557z M177.203,13.596c-0.084-1.666-1.334-3-3.062-3c-1.83,0-2.916,1.379-3.04,3.001
				C171.101,13.596,177.203,13.596,177.203,13.596z"/>
			<path fill="#4B286D" d="M190.37,19.884c-0.31,0.186-0.698,0.287-1.255,0.287c-0.906,0-1.481-0.495-1.481-1.644
				c-0.968,1.132-2.257,1.644-3.738,1.644c-1.931,0-3.513-0.861-3.513-2.978c0-2.404,1.785-2.916,3.597-3.265
				c1.931-0.372,3.575-0.248,3.575-1.559c0-1.52-1.255-1.768-2.364-1.768c-1.481,0-2.567,0.45-2.651,2.015h-1.745
				c0.101-2.629,2.139-3.552,4.498-3.552c1.908,0,3.986,0.433,3.986,2.916v5.466c0,0.822,0,1.193,0.557,1.193
				c0.146,0,0.31-0.023,0.535-0.101L190.37,19.884L190.37,19.884z M187.533,14.44c-0.676,0.495-1.993,0.512-3.164,0.721
				c-1.148,0.208-2.139,0.614-2.139,1.914c0,1.148,0.985,1.559,2.055,1.559c2.302,0,3.248-1.436,3.248-2.404V14.44z"/>
			<path fill="#4B286D" d="M192.144,5.253h1.745v14.67h-1.745V5.253z"/>
			<path fill="#4B286D" d="M199.006,9.301h2.117v1.542h-2.117v6.598c0,0.799,0.225,0.946,1.317,0.946h0.799v1.542h-1.334
				c-1.807,0-2.528-0.372-2.528-2.319v-6.767h-1.807V9.301h1.807V6.114h1.745L199.006,9.301L199.006,9.301z"/>
			<path fill="#4B286D" d="M202.913,5.253h1.745v5.607h0.039c0.574-1.272,2.077-1.807,3.35-1.807c2.792,0,3.659,1.604,3.659,3.884
				v6.986h-1.745v-7.189c0-1.295-0.822-2.139-2.156-2.139c-2.117,0-3.141,1.419-3.141,3.327v6.001h-1.745V5.253H202.913z"/>
		</g>
	</g>
</g>
</svg>
